# xmcd
#
# Track frame offsets:
# 150
# 13568
# 27867
# 43403
# 58981
# 76019
# 93484
# 109842
# 125480
#
# Disc length: 1870 seconds
#
# Revision: 0
# Processed by: cddbd v1.5.2PL0 Copyright (c) Steve Scherf et al.
# Submitted via: plextools 2.35
#
DISCID=71074c09
DTITLE=Scott English - Beer n' Nutz
DYEAR=2007
DGENRE=Country
TTITLE0=Scott English - Beer N' Nutz
TTITLE1=Scott English - Cheat On My Bar
TTITLE2=Scott English - In The Rear
TTITLE3=Scott English - Roses
TTITLE4=Scott English - I'm Still Drunk
TTITLE5=Scott English - I Just Wanna Fuck
TTITLE6=Scott English - Blow-Up Betty
TTITLE7=Scott English - Me and The Bottle
TTITLE8=Scott English - I Don't Know Country
EXTD=
EXTT0=
EXTT1=
EXTT2=
EXTT3=
EXTT4=
EXTT5=
EXTT6=
EXTT7=
EXTT8=
PLAYORDER=
